<svg width="40" height="40" viewBox="0 0 40 40" fill="none" xmlns="http://www.w3.org/2000/svg">
<g clip-path="url(#clip0_0_322)">
<path d="M27 14H25C25 11.24 22.76 9 20 9C17.24 9 15 11.24 15 14H13C11.9 14 11.01 14.9 11.01 16L11 28C11 29.1 11.9 30 13 30H27C28.1 30 29 29.1 29 28V16C29 14.9 28.1 14 27 14ZM20 11C21.66 11 23 12.34 23 14H17C17 12.34 18.34 11 20 11ZM20 21C17.24 21 15 18.76 15 16H17C17 17.66 18.34 19 20 19C21.66 19 23 17.66 23 16H25C25 18.76 22.76 21 20 21Z" fill="white"/>
</g>
<rect x="24" width="16" height="16" rx="8" fill="#416AFF"/>
<path d="M29.0768 6.588C29.0528 4.668 30.2528 3.504 32.1248 3.504C33.9128 3.504 35.1368 4.548 35.1368 6.144C35.1368 7.284 34.4768 8.172 33.1328 8.844L31.8008 9.516C31.3928 9.732 30.9008 10.044 30.9008 10.44H35.1128V12H29.1128L29.1008 10.668C29.1008 9.36 30.2168 8.496 30.9968 8.112L32.3648 7.428C32.9768 7.14 33.3248 6.708 33.3248 6.144C33.3248 5.436 32.8808 4.968 32.1248 4.968C31.2968 4.968 30.8648 5.628 30.8888 6.588H29.0768Z" fill="white"/>
<defs>
<clipPath id="clip0_0_322">
<rect width="24" height="24" fill="white" transform="translate(8 8)"/>
</clipPath>
</defs>
</svg>
